<svg class="svg-icon" style="width: 1em;height: 1em;vertical-align: middle;fill: currentColor;overflow: hidden;" viewBox="0 0 1024 1024" version="1.1" xmlns="http://www.w3.org/2000/svg"><path d="M0 512C0 229.226667 229.226667 0 512 0s512 229.226667 512 512-229.226667 512-512 512S0 794.773333 0 512z" fill="#FFFFFF" /><path d="M745.322667 256H499.413333a110.976 110.976 0 0 0 110.997334 110.997333h45.312v43.733334a111.018667 111.018667 0 0 0 110.933333 110.933333V277.333333a21.333333 21.333333 0 0 0-21.333333-21.333333z" fill="#2684FF" /><path d="M623.637333 378.517333H377.749333a111.018667 111.018667 0 0 0 110.933334 110.933334h45.290666V533.333333a111.018667 111.018667 0 0 0 110.997334 110.869334V399.850667a21.333333 21.333333 0 0 0-21.333334-21.333334z" fill="#2684FF" /><path d="M501.909333 500.970667H256a111.018667 111.018667 0 0 0 110.997333 111.018666h45.44v43.733334a111.018667 111.018667 0 0 0 110.805334 110.933333V522.304a21.333333 21.333333 0 0 0-21.333334-21.333333z" fill="#2684FF" /></svg>